inDegrees=yes
name=ik_coleta1_mov
DataType=double
version=3
OpenSimVersion=4.4-2022-07-23-0e9fedc
endheader
time	q1	q2
5.002087116241455	-6.198074120806071	-43.86862749208255
5.010090827941894	-6.198079348203433	-44.73617286164645
5.02009105682373	-5.007853190515025	-45.92639902597132
5.046098947525024	-3.149480801871815	-47.7847714337536
5.052088022232056	-3.149480805069895	-48.5125604440998
5.057095766067505	-1.216809984743007	-50.44523129406866
5.062085151672363	-1.216809986104033	-51.066709089182
5.070096969604492	-0.1479197572106575	-52.13559932316594
5.074084997177124	-0.1479197573159816	-52.77442210045731
5.082086086273193	-0.1479197573288072	-53.12123908784444
5.090098857879639	-0.1479197573306325	-53.34069265044145
5.102106094360352	-0.1479197573310803	-53.48745229202274
5.108093976974487	-0.147919757331264	-53.54097319879676
5.114089965820312	-0.1479197573312941	-53.50799096541386
5.119097948074341	1.106469527291701	-54.76238025872801
5.145092010498047	1.106469524564589	-50.08442034148563
5.151093006134033	1.955042178813231	-50.93299302284771
5.155086040496826	1.955042178734572	-49.38561679270218
5.161092042922974	2.841483492879962	-50.27205810992265
5.167093992233276	2.841483492861596	-49.58578875188145
5.172111988067627	3.752863689235629	-50.49716895067007
5.183080911636352	4.620202045705734	-51.36450730681626
5.192095994949341	8.106084612847233	-54.85039000321897
5.199105024337768	9.128535176275747	-55.87284043867671
5.204092741012573	9.128535176186286	-55.0477023138972
5.218415021896362	10.26767714538502	-56.18684428754899
5.223098039627075	10.26767714515644	-54.90162390057306
5.23809814453125	18.88056926830129	-63.5145177260565
5.245090007781982	18.88056894269917	-60.4511055272884
5.250102043151855	19.85904240811297	-61.42957899835248
5.254092931747436	19.85904239181246	-57.80726093846185
5.259095907211304	24.77230551148644	-62.72052420611809
5.264096975326538	24.7723054381912	-60.01600074023392
5.269095182418823	28.0436129403693	-63.28730827152646
5.27308988571167	28.04361290855441	-59.19205884812898
5.277091026306152	30.27924832462777	-61.42769427079498
5.283121109008789	30.27924831818367	-59.10930993001453
5.298079967498779	30.27924831861013	-56.93317555253441
5.313102960586548	30.27924825731328	-50.09242133486915
5.325096845626831	30.27924830650227	-45.94224666597994
5.331085920333862	30.27924831450846	-42.8008122166115
5.349122047424316	30.27924832028144	-41.57243273653385
5.355090856552124	30.27924832043569	-40.5481241397502
5.368084907531738	30.27924832043418	-39.52149268097578
5.374098062515259	31.61834518727814	-40.86058955231069
5.380092144012451	31.61834518617956	-39.7846469209327
5.386088848114014	32.34644648230998	-40.51274821795222
5.391086101531982	32.34644648125876	-38.86541034272848
5.396095991134643	32.97287198901429	-39.49183585157403
5.402098894119263	32.97287198573292	-37.03961739547686
5.406090974807739	33.73426333997304	-37.80100875274371
5.411094903945923	33.73426333918587	-36.41748894790534
5.41609787940979	34.46675082067086	-37.14997643062458
5.421094179153442	34.46675081983905	-35.74373805515174
5.429090023040771	35.01385785462944	-36.29084509073261
5.442095994949341	35.45382421280411	-36.73081144873219
5.447098970413208	35.45382420817641	-34.0834432723309
5.45309591293335	35.81444179736179	-34.44406086472242
5.457093954086304	35.81444179736179	-34.44406086472242
5.462088823318481	39.27898557504944	-37.90860474315408
5.46709394454956	39.27898552180054	-35.94161163356198
5.481092929840088	39.27898552641489	-35.1600777901542
5.486093997955322	38.67373554240396	-34.55482780563689
5.491116046905518	38.67373554253967	-33.98254213601042
5.497087001800537	37.92291158413687	-33.23171817646715
5.502094984054565	37.92291158454073	-32.75164546556693
5.50609302520752	37.07121953721584	-31.89995341648364
5.513095855712891	36.13564723141656	-30.96438111010483
5.526089906692505	36.13564723220367	-30.55614349620545
5.534106016159058	36.13564723220367	-30.55614349620545
5.55610990524292	36.13564723222044	-30.21942772421375
5.57311201095581	36.13564723223468	-29.98556993715239
5.580104827880859	36.13564723221019	-29.6019839112383
5.58409309387207	35.07986211651352	-28.54619879198765
5.588092803955078	35.07986211772338	-28.53252977396646
5.595090866088867	35.07986211772336	-28.55577376122229
5.60509991645813	32.21324031644536	-25.68915188856563
5.611083030700684	32.21324034596983	-25.7817392926226
5.624105930328369	32.21324034597143	-25.92657217920317
5.632108926773071	31.01582426388025	-24.72915609196572
5.644098997116089	31.01582426618366	-25.21261119729842
5.652091979980469	31.0158242672051	-26.36495978344283
5.661092042922974	29.74956148081368	-25.09869699129544
5.667101144790649	29.7495615245792	-28.9660184212095
5.67109489440918	27.08216691477137	-26.2986237638616
5.675095081329346	27.08216699261439	-30.84328117285182
5.680089950561523	26.02468293530154	-29.78579710546482
5.684108972549438	26.02468294347387	-32.14058574211275
5.689097881317139	25.07197792350781	-31.18788072043455
5.700078964233398	22.09731642900685	-28.21321920126397
5.704087018966675	22.09731645121836	-28.81948798714363
5.711097955703735	13.17346999942969	-19.89564089034316
5.719106912612915	13.17347072281313	-20.40901702292929
5.725098848342896	11.34880107333944	-18.58434736823165
5.731089115142822	11.34880108067332	-19.3348484283735
5.73509693145752	8.670424019635822	-16.6564713520573
5.749099969863892	8.670424047379742	-17.64063594778398
5.753095865249634	7.427923048808422	-16.39813494778558
5.758098125457764	7.42792305205746	-16.92180030330885
5.762093067169189	6.430359761904636	-15.92423701246653
5.770098924636841	6.430359763938789	-16.47422146857064
5.828120946884155	5.759479537990677	-15.80334124241743
5.83209490776062	5.759479538846318	-16.39230789380867
5.855129957199097	5.759479538929673	-17.04432545569036
5.868092060089111	5.759479543199927	-18.63321828005705
5.873100996017456	5.076680502378986	-17.95041923893586
5.876091003417969	5.07668050697636	-19.40948380960586
5.883102893829346	5.07668050357919	-20.13828301430302
5.893106937408447	5.076680508202899	-21.73721152925918
5.902098894119263	5.076680506403768	-23.12065566655162
5.9060959815979	5.076680504274323	-24.10143709093461
5.912083864212036	5.076681094783509	-31.89558475548026
5.917099952697754	5.076680523261628	-34.42275878001902
5.927091836929321	5.076680527459956	-37.11438305919209
5.937100887298584	5.076680504328532	-38.10998123437884
5.97710394859314	5.076680504289179	-39.09487560377813
5.987087965011597	5.076680504619614	-40.16336088723259
6.000097990036011	5.076680504626324	-41.23341158008228
6.006103038787842	5.076680504209184	-42.19579812440949
6.020087003707886	5.076680503962362	-43.08107193696065
6.041095018386841	5.076680503680857	-43.85772745105329
6.055113792419434	5.076680503394211	-44.47835449087824
6.068094968795776	5.07668050327906	-45.00598518608444
6.076097011566162	5.076680503422883	-45.64587594264228
6.087126016616821	5.076680503134063	-45.95943444468465
6.09409499168396	5.076680503120465	-46.23061540391228
6.101096868515015	5.07668050309537	-46.17852161982777
6.110097169876099	4.388867669382704	-45.49070878587116
6.115093946456909	3.698253840262318	-44.80009495674779
6.119085073471069	3.698253841128394	-44.6493727007454
6.124083995819092	2.391717119084067	-43.3428359770219
6.1300950050354	1.742414082189228	-42.6935329416003
6.134091854095459	1.742414081406791	-41.71676355374571
6.139083862304687	0.2390492127640608	-40.21339868265658
6.146094083786011	-0.2556148641589089	-39.71873460813843
6.150097131729126	-0.2556148657327316	-38.71693846618085
6.156092882156372	-2.337508697758317	-36.63504462719349
6.164108037948608	-2.30256099307278	-36.6699923388948
6.168093919754028	-2.302561135670962	-32.6086135783094
6.178091049194336	18.13591188094277	-53.04709579180641
6.184097051620483	18.13590537110172	-51.12151724800264
6.188091039657593	19.39937392300287	-52.38498580292313
6.193095207214355	19.39937391986026	-50.87045775452022
6.197095155715942	20.70272347997514	-52.1738073177366
6.203099012374878	20.70272347252383	-49.86676324430174
6.207097053527832	21.87828216327002	-51.04232193855724
6.215080976486206	21.87828215116299	-48.19987010990107
6.225084781646728	23.01219196081348	-49.33377992438867
6.229092121124268	23.01219195824379	-47.92249443623675
6.234092950820923	24.1660316412423	-49.07633412203001
6.24309492111206	26.89223271097078	-51.8025352220146
6.251090049743652	26.89223269154026	-49.85772273740128
6.268124103546143	26.89223262624102	-44.49323243852788
6.287100791931152	26.89223267364995	-40.86960315318214
6.301462888717651	26.89223266842606	-36.97086407908348
6.305103063583374	26.89223269381028	-35.66382298335789
6.320565938949585	26.89223269397126	-34.43155123997609
6.329091072082519	26.89223269399881	-33.21307042162014
6.339593887329102	30.8455527649325	-37.16639073133398
6.340111017227173	31.68796365282534	-38.00880138322781
6.350112915039062	32.93658795339045	-39.25742568899531
6.364112138748169	35.71412393221169	-42.03496174295731
6.37210202217102	35.71412391368204	-39.68023559229114
6.37608790397644	37.98862532594232	-41.95473705504956
6.38009786605835	37.98862530884085	-38.90620167011469
6.385098934173584	37.98862531342527	-36.43467417361132
6.391107082366943	37.98862531807545	-35.24093670492277
6.399106979370117	39.62066810978072	-36.87297951700006
6.404092788696289	40.75689037085954	-38.00920176493021
6.410110950469971	40.75689036909732	-36.75849112496731
6.414099931716919	45.87808999450516	-41.87969138100717
6.41809606552124	45.87808979085651	-40.04059297785841
6.423101902008057	45.87808976889223	-36.84008209949764
6.43508505821228	44.74474080214834	-35.70673313699041
6.442101955413818	44.74474080159047	-34.22711116899712
6.450106143951416	44.74474079775612	-32.25818235885583
6.454088926315308	44.06038334241248	-31.57382490471484
6.474114894866943	43.32107620455803	-30.83451776634319
6.480108022689819	43.32107620520565	-30.53890763263659
6.496096849441528	43.32107620522445	-30.35970504366185
6.511114835739136	43.32107620522859	-30.24822462688997
6.517088890075684	43.32107620522982	-30.19764245438953
6.541095972061157	43.32107620522993	-30.18658675795627
6.579159021377563	43.32107620523082	-30.28330867761165
6.602126121520996	43.32107620523159	-30.40270231438745
6.626123905181885	43.32107620523377	-30.56226471884422
6.636087894439697	43.32107620548815	-31.2138226117744
6.712176084518433	42.59441503694943	-30.48716144072263
6.721102952957153	41.23958015481869	-29.13232654545331
6.729095935821533	39.31802519456743	-27.21077155642121
6.733097791671753	39.31802521001666	-27.7279398957266
6.739092826843262	38.1721475186237	-26.58206219507875
6.744076013565063	38.17214752333886	-27.60635359113758
6.750072002410889	36.88822318215281	-26.32242923711665
6.754108905792236	36.88822318727146	-26.93478420696727
6.758102893829346	31.32158190367762	-21.3681419362905
6.764096975326538	31.32158229640089	-24.97586877928028
6.77211594581604	31.32158545956623	-39.26411669355034
6.778097152709961	29.00450118093989	-36.94703212114946
6.783107995986938	29.00450120982328	-38.53999404286231
6.793122053146362	29.00450120772574	-39.8250628739759
6.797096967697144	26.76030704373422	-37.5808686973556
6.801101922988892	26.76030706596611	-38.29522927703629
6.80510401725769	0.3631219783157341	-11.89802470320086
6.811109066009521	0.3632271179757994	-22.30510462510586
6.825089931488037	0.3632236812228875	-23.72320813646842
6.833102941513062	0.3632236736212777	-24.43733610351654
6.840090036392212	0.3632236733376165	-25.08475197938076
6.850095987319946	0.3632236740138401	-25.87454689204747
6.859132051467896	0.3632236754679034	-26.86393200699532
6.895094871520996	0.3632236774711414	-28.03937022737845
6.905099868774414	0.3632236789825153	-29.32373379353968
6.915091991424561	0.3632236755282247	-30.31980448812418
6.923092842102051	0.3632236749827946	-31.25188761486893
6.96209192276001	0.3632236744399995	-32.11011846245597
6.985100030899048	0.363223674320106	-32.95021747906333
6.990093946456909	0.3632236788951113	-34.22879875494903
6.99508810043335	-0.09251364990800837	-33.77306142593181
